<?xml version="1.0" standalone="no"?>
<!DOCTYPE svg PUBLIC "-//W3C//DTD SVG 1.1//EN" "http://www.w3.org/Graphics/SVG/1.1/DTD/svg11.dtd">
<svg width="170mm" height="404mm" viewBox="29 -452 170 404" xmlns="http://www.w3.org/2000/svg" version="1.1">
<title>OpenSCAD Model</title>
<path d="
M 141,-402.048 L 141,-392.048 L 145,-392.048 L 145,-382.048 L 141,-382.048 L 141,-372.048
 L 145,-372.048 L 145,-362.048 L 141,-362.048 L 141,-352.048 L 145,-352.048 L 145,-342.048
 L 141,-342.048 L 141,-332.048 L 145,-332.048 L 145,-322.048 L 141,-322.048 L 141,-312.048
 L 145,-312.048 L 145,-305.145 L 168,-305.145 L 168,-304.945 L 145,-304.945 L 145,-301.139
 L 168,-301.139 L 168,-300.939 L 145,-300.939 L 145,-297.133 L 168,-297.133 L 168,-296.933
 L 145,-296.933 L 145,-293.127 L 168,-293.127 L 168,-292.927 L 145,-292.927 L 145,-289.121
 L 168,-289.121 L 168,-288.921 L 145,-288.921 L 145,-285.115 L 168,-285.115 L 168,-284.915
 L 145,-284.915 L 145,-281.109 L 168,-281.109 L 168,-280.909 L 145,-280.909 L 145,-277.103
 L 168,-277.103 L 168,-276.903 L 145,-276.903 L 145,-275 L 141,-275 L 141,-265
 L 145,-265 L 145,-255 L 141,-255 L 141,-245 L 145,-245 L 145,-235
 L 141,-235 L 141,-225 L 145,-225 L 145,-223.097 L 168,-223.097 L 168,-222.897
 L 145,-222.897 L 145,-219.091 L 168,-219.091 L 168,-218.891 L 145,-218.891 L 145,-215.085
 L 168,-215.085 L 168,-214.885 L 145,-214.885 L 145,-211.079 L 168,-211.079 L 168,-210.879
 L 145,-210.879 L 145,-207.073 L 168,-207.073 L 168,-206.873 L 145,-206.873 L 145,-203.067
 L 168,-203.067 L 168,-202.867 L 145,-202.867 L 145,-199.061 L 168,-199.061 L 168,-198.861
 L 145,-198.861 L 145,-195.055 L 168,-195.055 L 168,-194.855 L 145,-194.855 L 145,-187.952
 L 141,-187.952 L 141,-177.952 L 145,-177.952 L 145,-167.952 L 141,-167.952 L 141,-157.952
 L 145,-157.952 L 145,-147.952 L 141,-147.952 L 141,-137.952 L 145,-137.952 L 145,-127.952
 L 141,-127.952 L 141,-117.952 L 145,-117.952 L 145,-107.952 L 141,-107.952 L 141,-97.9516
 L 145,-97.9516 L 145,-87.9516 L 141,-87.9516 L 141,-77.9516 L 145,-77.9516 L 145,-72.9516
 L 145.171,-70.3411 L 145.681,-67.7752 L 146.522,-65.2979 L 147.679,-62.9516 L 149.133,-60.7764 L 150.858,-58.8095
 L 152.825,-57.0845 L 155,-55.6311 L 157.346,-54.474 L 159.824,-53.6331 L 162.389,-53.1227 L 165,-52.9516
 L 165,-48.9516 L 175,-48.9516 L 175,-52.9516 L 177.611,-53.1227 L 180.176,-53.6331 L 182.654,-54.474
 L 185,-55.6311 L 187.175,-57.0845 L 189.142,-58.8095 L 190.867,-60.7764 L 192.321,-62.9516 L 193.478,-65.2979
 L 194.319,-67.7752 L 194.829,-70.3411 L 195,-72.9516 L 195,-77.9516 L 199,-77.9516 L 199,-87.9516
 L 195,-87.9516 L 195,-97.9516 L 199,-97.9516 L 199,-107.952 L 195,-107.952 L 195,-117.952
 L 199,-117.952 L 199,-127.952 L 195,-127.952 L 195,-137.952 L 199,-137.952 L 199,-147.952
 L 195,-147.952 L 195,-157.952 L 199,-157.952 L 199,-167.952 L 195,-167.952 L 195,-177.952
 L 199,-177.952 L 199,-187.952 L 195,-187.952 L 195,-194.855 L 172,-194.855 L 172,-195.055
 L 195,-195.055 L 195,-198.861 L 172,-198.861 L 172,-199.061 L 195,-199.061 L 195,-202.867
 L 172,-202.867 L 172,-203.067 L 195,-203.067 L 195,-206.873 L 172,-206.873 L 172,-207.073
 L 195,-207.073 L 195,-210.879 L 172,-210.879 L 172,-211.079 L 195,-211.079 L 195,-214.885
 L 172,-214.885 L 172,-215.085 L 195,-215.085 L 195,-218.891 L 172,-218.891 L 172,-219.091
 L 195,-219.091 L 195,-222.897 L 172,-222.897 L 172,-223.097 L 195,-223.097 L 195,-225
 L 199,-225 L 199,-235 L 195,-235 L 195,-245 L 199,-245 L 199,-255
 L 195,-255 L 195,-265 L 199,-265 L 199,-275 L 195,-275 L 195,-276.903
 L 172,-276.903 L 172,-277.103 L 195,-277.103 L 195,-280.909 L 172,-280.909 L 172,-281.109
 L 195,-281.109 L 195,-284.915 L 172,-284.915 L 172,-285.115 L 195,-285.115 L 195,-288.921
 L 172,-288.921 L 172,-289.121 L 195,-289.121 L 195,-292.927 L 172,-292.927 L 172,-293.127
 L 195,-293.127 L 195,-296.933 L 172,-296.933 L 172,-297.133 L 195,-297.133 L 195,-300.939
 L 172,-300.939 L 172,-301.139 L 195,-301.139 L 195,-304.945 L 172,-304.945 L 172,-305.145
 L 195,-305.145 L 195,-312.048 L 199,-312.048 L 199,-322.048 L 195,-322.048 L 195,-332.048
 L 199,-332.048 L 199,-342.048 L 195,-342.048 L 195,-352.048 L 199,-352.048 L 199,-362.048
 L 195,-362.048 L 195,-372.048 L 199,-372.048 L 199,-382.048 L 195,-382.048 L 195,-392.048
 L 199,-392.048 L 199,-402.048 L 195,-402.048 L 195,-412.048 L 199,-412.048 L 199,-422.048
 L 195,-422.048 L 195,-427.048 L 194.829,-429.659 L 194.319,-432.225 L 193.478,-434.702 L 192.321,-437.048
 L 190.867,-439.224 L 189.142,-441.191 L 187.175,-442.915 L 185,-444.369 L 182.654,-445.526 L 180.176,-446.367
 L 177.611,-446.877 L 175,-447.048 L 175,-451.048 L 165,-451.048 L 165,-447.048 L 162.389,-446.877
 L 159.824,-446.367 L 157.346,-445.526 L 155,-444.369 L 152.825,-442.915 L 150.858,-441.191 L 149.133,-439.224
 L 147.679,-437.048 L 146.522,-434.702 L 145.681,-432.225 L 145.171,-429.659 L 145,-427.048 L 145,-422.048
 L 141,-422.048 L 141,-412.048 L 145,-412.048 L 145,-402.048 z
M 147,-302.942 L 147,-303.142 L 193,-303.142 L 193,-302.942 z
M 147,-298.936 L 147,-299.136 L 193,-299.136 L 193,-298.936 z
M 147,-294.93 L 147,-295.13 L 193,-295.13 L 193,-294.93 z
M 147,-290.924 L 147,-291.124 L 193,-291.124 L 193,-290.924 z
M 147,-286.918 L 147,-287.118 L 193,-287.118 L 193,-286.918 z
M 147,-282.912 L 147,-283.112 L 193,-283.112 L 193,-282.912 z
M 147,-278.906 L 147,-279.106 L 193,-279.106 L 193,-278.906 z
M 147,-220.894 L 147,-221.094 L 193,-221.094 L 193,-220.894 z
M 147,-216.888 L 147,-217.088 L 193,-217.088 L 193,-216.888 z
M 147,-212.882 L 147,-213.082 L 193,-213.082 L 193,-212.882 z
M 147,-208.876 L 147,-209.076 L 193,-209.076 L 193,-208.876 z
M 147,-204.87 L 147,-205.07 L 193,-205.07 L 193,-204.87 z
M 147,-200.864 L 147,-201.064 L 193,-201.064 L 193,-200.864 z
M 147,-196.858 L 147,-197.058 L 193,-197.058 L 193,-196.858 z
M 135,-258.906 L 115.8,-258.906 L 115.8,-259.106 L 135,-259.106 L 135,-262.912 L 115.8,-262.912
 L 115.8,-263.112 L 135,-263.112 L 135,-266.918 L 115.8,-266.918 L 115.8,-267.118 L 135,-267.118
 L 135,-270.924 L 115.8,-270.924 L 115.8,-271.124 L 135,-271.124 L 135,-274.93 L 115.8,-274.93
 L 115.8,-275.13 L 135,-275.13 L 135,-278.936 L 115.8,-278.936 L 115.8,-279.136 L 135,-279.136
 L 135,-282.942 L 115.8,-282.942 L 115.8,-283.142 L 135,-283.142 L 135,-407.048 L 134.76,-410.703
 L 134.046,-414.295 L 132.869,-417.764 L 131.249,-421.048 L 129.214,-424.094 L 126.799,-426.847 L 124.045,-429.262
 L 121,-431.297 L 117.715,-432.917 L 114.247,-434.094 L 110.655,-434.809 L 107,-435.048 L 57,-435.048
 L 53.3453,-434.809 L 49.7531,-434.094 L 46.2849,-432.917 L 43,-431.297 L 39.9547,-429.262 L 37.201,-426.847
 L 34.7861,-424.094 L 32.7513,-421.048 L 31.1314,-417.764 L 29.9541,-414.295 L 29.2395,-410.703 L 29,-407.048
 L 29,-285.145 L 48.2,-285.145 L 48.2,-284.945 L 29,-284.945 L 29,-281.139 L 48.2,-281.139
 L 48.2,-280.939 L 29,-280.939 L 29,-277.133 L 48.2,-277.133 L 48.2,-276.933 L 29,-276.933
 L 29,-273.127 L 48.2,-273.127 L 48.2,-272.927 L 29,-272.927 L 29,-269.121 L 48.2,-269.121
 L 48.2,-268.921 L 29,-268.921 L 29,-265.115 L 48.2,-265.115 L 48.2,-264.915 L 29,-264.915
 L 29,-261.109 L 48.2,-261.109 L 48.2,-260.909 L 29,-260.909 L 29,-257.103 L 48.2,-257.103
 L 48.2,-256.903 L 29,-256.903 L 29,-243.097 L 48.2,-243.097 L 48.2,-242.897 L 29,-242.897
 L 29,-239.091 L 48.2,-239.091 L 48.2,-238.891 L 29,-238.891 L 29,-235.085 L 48.2,-235.085
 L 48.2,-234.885 L 29,-234.885 L 29,-231.079 L 48.2,-231.079 L 48.2,-230.879 L 29,-230.879
 L 29,-227.073 L 48.2,-227.073 L 48.2,-226.873 L 29,-226.873 L 29,-223.067 L 48.2,-223.067
 L 48.2,-222.867 L 29,-222.867 L 29,-219.061 L 48.2,-219.061 L 48.2,-218.861 L 29,-218.861
 L 29,-215.055 L 48.2,-215.055 L 48.2,-214.855 L 29,-214.855 L 29,-92.9516 L 29.2395,-89.2969
 L 29.9541,-85.7047 L 31.1314,-82.2365 L 32.7513,-78.9516 L 34.7861,-75.9063 L 37.201,-73.1526 L 39.9547,-70.7377
 L 43,-68.7029 L 46.2849,-67.083 L 49.7531,-65.9057 L 53.3453,-65.1911 L 57,-64.9516 L 107,-64.9516
 L 110.655,-65.1911 L 114.247,-65.9057 L 117.715,-67.083 L 121,-68.7029 L 124.045,-70.7377 L 126.799,-73.1526
 L 129.214,-75.9063 L 131.249,-78.9516 L 132.869,-82.2365 L 134.046,-85.7047 L 134.76,-89.2969 L 135,-92.9516
 L 135,-216.858 L 115.8,-216.858 L 115.8,-217.058 L 135,-217.058 L 135,-220.864 L 115.8,-220.864
 L 115.8,-221.064 L 135,-221.064 L 135,-224.87 L 115.8,-224.87 L 115.8,-225.07 L 135,-225.07
 L 135,-228.876 L 115.8,-228.876 L 115.8,-229.076 L 135,-229.076 L 135,-232.882 L 115.8,-232.882
 L 115.8,-233.082 L 135,-233.082 L 135,-236.888 L 115.8,-236.888 L 115.8,-237.088 L 135,-237.088
 L 135,-240.894 L 115.8,-240.894 L 115.8,-241.094 L 135,-241.094 z
M 133,-234.885 L 94.6,-234.885 L 94.6,-235.085 L 133,-235.085 z
M 97,-426.998 L 97,-431.098 L 107,-431.098 L 107,-426.998 z
M 57,-426.998 L 57,-431.098 L 67,-431.098 L 67,-426.998 z
M 77,-426.998 L 77,-431.098 L 87,-431.098 L 87,-426.998 z
M 33,-392.048 L 33,-402.048 L 37,-402.048 L 37,-392.048 z
M 127,-392.048 L 127,-402.048 L 131,-402.048 L 131,-392.048 z
M 33,-372.048 L 33,-382.048 L 37,-382.048 L 37,-372.048 z
M 127,-372.048 L 127,-382.048 L 131,-382.048 L 131,-372.048 z
M 33,-352.048 L 33,-362.048 L 37,-362.048 L 37,-352.048 z
M 127,-352.048 L 127,-362.048 L 131,-362.048 L 131,-352.048 z
M 33,-342.048 L 37,-342.048 L 37,-332.048 L 33,-332.048 z
M 127,-312.048 L 127,-322.048 L 131,-322.048 L 131,-312.048 z
M 33,-312.048 L 33,-322.048 L 37,-322.048 L 37,-312.048 z
M 33,-292.048 L 33,-302.048 L 37,-302.048 L 37,-292.048 z
M 127,-292.048 L 127,-302.048 L 131,-302.048 L 131,-292.048 z
M 94.6,-284.945 L 94.6,-285.145 L 133,-285.145 L 133,-284.945 z
M 52.2,-284.945 L 52.2,-285.145 L 90.6,-285.145 L 90.6,-284.945 z
M 73.4,-282.942 L 73.4,-283.142 L 111.8,-283.142 L 111.8,-282.942 z
M 31,-282.942 L 31,-283.142 L 69.4,-283.142 L 69.4,-282.942 z
M 94.6,-280.939 L 94.6,-281.139 L 133,-281.139 L 133,-280.939 z
M 52.2,-280.939 L 52.2,-281.139 L 90.6,-281.139 L 90.6,-280.939 z
M 31,-278.936 L 31,-279.136 L 69.4,-279.136 L 69.4,-278.936 z
M 52.2,-276.933 L 52.2,-277.133 L 90.6,-277.133 L 90.6,-276.933 z
M 133,-276.933 L 94.6,-276.933 L 94.6,-277.133 L 133,-277.133 z
M 31,-274.93 L 31,-275.13 L 69.4,-275.13 L 69.4,-274.93 z
M 73.4,-274.93 L 73.4,-275.13 L 111.8,-275.13 L 111.8,-274.93 z
M 94.6,-272.927 L 94.6,-273.127 L 133,-273.127 L 133,-272.927 z
M 52.2,-272.927 L 52.2,-273.127 L 90.6,-273.127 L 90.6,-272.927 z
M 73.4,-270.924 L 73.4,-271.124 L 111.8,-271.124 L 111.8,-270.924 z
M 31,-270.924 L 31,-271.124 L 69.4,-271.124 L 69.4,-270.924 z
M 94.6,-268.921 L 94.6,-269.121 L 133,-269.121 L 133,-268.921 z
M 52.2,-268.921 L 52.2,-269.121 L 90.6,-269.121 L 90.6,-268.921 z
M 73.4,-266.918 L 73.4,-267.118 L 111.8,-267.118 L 111.8,-266.918 z
M 31,-266.918 L 31,-267.118 L 69.4,-267.118 L 69.4,-266.918 z
M 52.2,-264.915 L 52.2,-265.115 L 90.6,-265.115 L 90.6,-264.915 z
M 94.6,-264.915 L 94.6,-265.115 L 133,-265.115 L 133,-264.915 z
M 31,-262.912 L 31,-263.112 L 69.4,-263.112 L 69.4,-262.912 z
M 73.4,-262.912 L 73.4,-263.112 L 111.8,-263.112 L 111.8,-262.912 z
M 52.2,-260.909 L 52.2,-261.109 L 90.6,-261.109 L 90.6,-260.909 z
M 94.6,-260.909 L 94.6,-261.109 L 133,-261.109 L 133,-260.909 z
M 73.4,-258.906 L 73.4,-259.106 L 111.8,-259.106 L 111.8,-258.906 z
M 31,-258.906 L 31,-259.106 L 69.4,-259.106 L 69.4,-258.906 z
M 94.6,-256.903 L 94.6,-257.103 L 133,-257.103 L 133,-256.903 z
M 52.2,-256.903 L 52.2,-257.103 L 90.6,-257.103 L 90.6,-256.903 z
M 127,-245 L 127,-255 L 131,-255 L 131,-245 z
M 33,-245 L 33,-255 L 37,-255 L 37,-245 z
M 94.6,-242.897 L 94.6,-243.097 L 133,-243.097 L 133,-242.897 z
M 52.2,-242.897 L 52.2,-243.097 L 90.6,-243.097 L 90.6,-242.897 z
M 31,-240.894 L 31,-241.094 L 69.4,-241.094 L 69.4,-240.894 z
M 94.6,-238.891 L 94.6,-239.091 L 133,-239.091 L 133,-238.891 z
M 52.2,-238.891 L 52.2,-239.091 L 90.6,-239.091 L 90.6,-238.891 z
M 73.4,-236.888 L 73.4,-237.088 L 111.8,-237.088 L 111.8,-236.888 z
M 31,-236.888 L 31,-237.088 L 69.4,-237.088 L 69.4,-236.888 z
M 73.4,-232.882 L 73.4,-233.082 L 111.8,-233.082 L 111.8,-232.882 z
M 31,-232.882 L 31,-233.082 L 69.4,-233.082 L 69.4,-232.882 z
M 52.2,-230.879 L 52.2,-231.079 L 90.6,-231.079 L 90.6,-230.879 z
M 94.6,-230.879 L 94.6,-231.079 L 133,-231.079 L 133,-230.879 z
M 73.4,-228.876 L 73.4,-229.076 L 111.8,-229.076 L 111.8,-228.876 z
M 31,-228.876 L 31,-229.076 L 69.4,-229.076 L 69.4,-228.876 z
M 94.6,-226.873 L 94.6,-227.073 L 133,-227.073 L 133,-226.873 z
M 52.2,-226.873 L 52.2,-227.073 L 90.6,-227.073 L 90.6,-226.873 z
M 73.4,-224.87 L 73.4,-225.07 L 111.8,-225.07 L 111.8,-224.87 z
M 31,-224.87 L 31,-225.07 L 69.4,-225.07 L 69.4,-224.87 z
M 94.6,-222.867 L 94.6,-223.067 L 133,-223.067 L 133,-222.867 z
M 31,-220.864 L 31,-221.064 L 69.4,-221.064 L 69.4,-220.864 z
M 94.6,-218.861 L 94.6,-219.061 L 133,-219.061 L 133,-218.861 z
M 52.2,-218.861 L 52.2,-219.061 L 90.6,-219.061 L 90.6,-218.861 z
M 73.4,-216.858 L 73.4,-217.058 L 111.8,-217.058 L 111.8,-216.858 z
M 31,-216.858 L 31,-217.058 L 69.4,-217.058 L 69.4,-216.858 z
M 52.2,-214.855 L 52.2,-215.055 L 90.6,-215.055 L 90.6,-214.855 z
M 94.6,-214.855 L 94.6,-215.055 L 133,-215.055 L 133,-214.855 z
M 33,-197.952 L 33,-207.952 L 37,-207.952 L 37,-197.952 z
M 127,-197.952 L 127,-207.952 L 131,-207.952 L 131,-197.952 z
M 127,-177.952 L 127,-187.952 L 131,-187.952 L 131,-177.952 z
M 33,-177.952 L 33,-187.952 L 37,-187.952 L 37,-177.952 z
M 127,-157.952 L 127,-167.952 L 131,-167.952 L 131,-157.952 z
M 33,-157.952 L 33,-167.952 L 37,-167.952 L 37,-157.952 z
M 33,-147.952 L 37,-147.952 L 37,-137.952 L 33,-137.952 z
M 33,-117.952 L 33,-127.952 L 37,-127.952 L 37,-117.952 z
M 127,-117.952 L 127,-127.952 L 131,-127.952 L 131,-117.952 z
M 127,-97.9516 L 127,-107.952 L 131,-107.952 L 131,-97.9516 z
M 33,-97.9516 L 33,-107.952 L 37,-107.952 L 37,-97.9516 z
M 57,-68.9016 L 57,-73.0016 L 67,-73.0016 L 67,-68.9016 z
M 77,-68.9016 L 77,-73.0016 L 87,-73.0016 L 87,-68.9016 z
M 97,-68.9016 L 97,-73.0016 L 107,-73.0016 L 107,-68.9016 z
M 131,-342.048 L 131,-332.048 L 127,-332.048 L 127,-342.048 z
M 73.4,-278.936 L 73.4,-279.136 L 111.8,-279.136 L 111.8,-278.936 z
M 73.4,-240.894 L 73.4,-241.094 L 111.8,-241.094 L 111.8,-240.894 z
M 90.6,-222.867 L 52.2,-222.867 L 52.2,-223.067 L 90.6,-223.067 z
M 90.6,-234.885 L 52.2,-234.885 L 52.2,-235.085 L 90.6,-235.085 z
M 73.4,-220.864 L 73.4,-221.064 L 111.8,-221.064 L 111.8,-220.864 z
M 131,-147.952 L 131,-137.952 L 127,-137.952 L 127,-147.952 z
" stroke="black" fill="lightgray" stroke-width="0.5"/>
</svg>
