<?xml version="1.0" standalone="no"?>
<!DOCTYPE svg PUBLIC "-//W3C//DTD SVG 1.1//EN" "http://www.w3.org/Graphics/SVG/1.1/DTD/svg11.dtd">
<svg width="154mm" height="400mm" viewBox="21 -442 154 400" xmlns="http://www.w3.org/2000/svg" version="1.1">
<title>OpenSCAD Model</title>
<path d="
M 125,-237 L 129,-237 L 129,-227 L 125,-227 L 125,-217 L 129,-217
 L 129,-214.097 L 148,-214.097 L 148,-213.897 L 129,-213.897 L 129,-210.091 L 148,-210.091
 L 148,-209.891 L 129,-209.891 L 129,-206.085 L 148,-206.085 L 148,-205.885 L 129,-205.885
 L 129,-202.079 L 148,-202.079 L 148,-201.879 L 129,-201.879 L 129,-198.073 L 148,-198.073
 L 148,-197.873 L 129,-197.873 L 129,-194.067 L 148,-194.067 L 148,-193.867 L 129,-193.867
 L 129,-191.964 L 125,-191.964 L 125,-181.964 L 129,-181.964 L 129,-171.964 L 125,-171.964
 L 125,-161.964 L 129,-161.964 L 129,-151.964 L 125,-151.964 L 125,-141.964 L 129,-141.964
 L 129,-131.964 L 125,-131.964 L 125,-121.964 L 129,-121.964 L 129,-111.964 L 125,-111.964
 L 125,-101.964 L 129,-101.964 L 129,-91.9637 L 125,-91.9637 L 125,-81.9637 L 129,-81.9637
 L 129,-71.9637 L 125,-71.9637 L 125,-61.9637 L 129,-61.9637 L 129.128,-60.0058 L 129.511,-58.0814
 L 130.142,-56.2234 L 131.01,-54.4637 L 132.1,-52.8323 L 133.393,-51.3571 L 134.869,-50.0634 L 136.5,-48.9733
 L 138.26,-48.1055 L 140.118,-47.4748 L 142.042,-47.092 L 144,-46.9637 L 145,-46.9637 L 145,-42.9637
 L 155,-42.9637 L 155,-46.9637 L 156,-46.9637 L 157.958,-47.092 L 159.882,-47.4748 L 161.74,-48.1055
 L 163.5,-48.9733 L 165.131,-50.0634 L 166.607,-51.3571 L 167.9,-52.8323 L 168.99,-54.4637 L 169.858,-56.2234
 L 170.489,-58.0814 L 170.872,-60.0058 L 171,-61.9637 L 175,-61.9637 L 175,-71.9637 L 171,-71.9637
 L 171,-81.9637 L 175,-81.9637 L 175,-91.9637 L 171,-91.9637 L 171,-101.964 L 175,-101.964
 L 175,-111.964 L 171,-111.964 L 171,-121.964 L 175,-121.964 L 175,-131.964 L 171,-131.964
 L 171,-141.964 L 175,-141.964 L 175,-151.964 L 171,-151.964 L 171,-161.964 L 175,-161.964
 L 175,-171.964 L 171,-171.964 L 171,-181.964 L 175,-181.964 L 175,-191.964 L 171,-191.964
 L 171,-193.867 L 152,-193.867 L 152,-194.067 L 171,-194.067 L 171,-197.873 L 152,-197.873
 L 152,-198.073 L 171,-198.073 L 171,-201.879 L 152,-201.879 L 152,-202.079 L 171,-202.079
 L 171,-205.885 L 152,-205.885 L 152,-206.085 L 171,-206.085 L 171,-209.891 L 152,-209.891
 L 152,-210.091 L 171,-210.091 L 171,-213.897 L 152,-213.897 L 152,-214.097 L 171,-214.097
 L 171,-217 L 175,-217 L 175,-227 L 171,-227 L 171,-237 L 175,-237
 L 175,-247 L 171,-247 L 171,-257 L 175,-257 L 175,-267 L 171,-267
 L 171,-269.903 L 152,-269.903 L 152,-270.103 L 171,-270.103 L 171,-273.909 L 152,-273.909
 L 152,-274.109 L 171,-274.109 L 171,-277.915 L 152,-277.915 L 152,-278.115 L 171,-278.115
 L 171,-281.921 L 152,-281.921 L 152,-282.121 L 171,-282.121 L 171,-285.927 L 152,-285.927
 L 152,-286.127 L 171,-286.127 L 171,-289.933 L 152,-289.933 L 152,-290.133 L 171,-290.133
 L 171,-292.036 L 175,-292.036 L 175,-302.036 L 171,-302.036 L 171,-312.036 L 175,-312.036
 L 175,-322.036 L 171,-322.036 L 171,-332.036 L 175,-332.036 L 175,-342.036 L 171,-342.036
 L 171,-352.036 L 175,-352.036 L 175,-362.036 L 171,-362.036 L 171,-372.036 L 175,-372.036
 L 175,-382.036 L 171,-382.036 L 171,-392.036 L 175,-392.036 L 175,-402.036 L 171,-402.036
 L 171,-412.036 L 175,-412.036 L 175,-422.036 L 171,-422.036 L 170.872,-423.994 L 170.489,-425.919
 L 169.858,-427.777 L 168.99,-429.536 L 167.9,-431.168 L 166.607,-432.643 L 165.131,-433.937 L 163.5,-435.027
 L 161.74,-435.895 L 159.882,-436.525 L 157.958,-436.908 L 156,-437.036 L 155,-437.036 L 155,-441.036
 L 145,-441.036 L 145,-437.036 L 144,-437.036 L 142.042,-436.908 L 140.118,-436.525 L 138.26,-435.895
 L 136.5,-435.027 L 134.869,-433.937 L 133.393,-432.643 L 132.1,-431.168 L 131.01,-429.536 L 130.142,-427.777
 L 129.511,-425.919 L 129.128,-423.994 L 129,-422.036 L 125,-422.036 L 125,-412.036 L 129,-412.036
 L 129,-402.036 L 125,-402.036 L 125,-392.036 L 129,-392.036 L 129,-382.036 L 125,-382.036
 L 125,-372.036 L 129,-372.036 L 129,-362.036 L 125,-362.036 L 125,-352.036 L 129,-352.036
 L 129,-342.036 L 125,-342.036 L 125,-332.036 L 129,-332.036 L 129,-322.036 L 125,-322.036
 L 125,-312.036 L 129,-312.036 L 129,-302.036 L 125,-302.036 L 125,-292.036 L 129,-292.036
 L 129,-290.133 L 148,-290.133 L 148,-289.933 L 129,-289.933 L 129,-286.127 L 148,-286.127
 L 148,-285.927 L 129,-285.927 L 129,-282.121 L 148,-282.121 L 148,-281.921 L 129,-281.921
 L 129,-278.115 L 148,-278.115 L 148,-277.915 L 129,-277.915 L 129,-274.109 L 148,-274.109
 L 148,-273.909 L 129,-273.909 L 129,-270.103 L 148,-270.103 L 148,-269.903 L 129,-269.903
 L 129,-267 L 125,-267 L 125,-257 L 129,-257 L 129,-247 L 125,-247
 z
M 131,-287.93 L 131,-288.13 L 169,-288.13 L 169,-287.93 z
M 131,-283.924 L 131,-284.124 L 169,-284.124 L 169,-283.924 z
M 131,-279.918 L 131,-280.118 L 169,-280.118 L 169,-279.918 z
M 131,-275.912 L 131,-276.112 L 169,-276.112 L 169,-275.912 z
M 131,-271.906 L 131,-272.106 L 169,-272.106 L 169,-271.906 z
M 131,-211.894 L 131,-212.094 L 169,-212.094 L 169,-211.894 z
M 131,-207.888 L 131,-208.088 L 169,-208.088 L 169,-207.888 z
M 131,-203.882 L 131,-204.082 L 169,-204.082 L 169,-203.882 z
M 131,-199.876 L 131,-200.076 L 169,-200.076 L 169,-199.876 z
M 131,-195.87 L 131,-196.07 L 169,-196.07 L 169,-195.87 z
M 21,-269.933 L 21,-266.127 L 43.5,-266.127 L 43.5,-265.927 L 21,-265.927 L 21,-262.121
 L 43.5,-262.121 L 43.5,-261.921 L 21,-261.921 L 21,-258.115 L 43.5,-258.115 L 43.5,-257.915
 L 21,-257.915 L 21,-254.109 L 43.5,-254.109 L 43.5,-253.909 L 21,-253.909 L 21,-250.103
 L 43.5,-250.103 L 43.5,-249.903 L 21,-249.903 L 21,-234.097 L 43.5,-234.097 L 43.5,-233.897
 L 21,-233.897 L 21,-230.091 L 43.5,-230.091 L 43.5,-229.891 L 21,-229.891 L 21,-226.085
 L 43.5,-226.085 L 43.5,-225.885 L 21,-225.885 L 21,-222.079 L 43.5,-222.079 L 43.5,-221.879
 L 21,-221.879 L 21,-218.073 L 43.5,-218.073 L 43.5,-217.873 L 21,-217.873 L 21,-214.067
 L 43.5,-214.067 L 43.5,-213.867 L 21,-213.867 L 21,-81.9637 L 21.1968,-78.9616 L 21.7837,-76.0109
 L 22.7508,-73.162 L 24.0814,-70.4637 L 25.7529,-67.9622 L 27.7365,-65.7002 L 29.9985,-63.7166 L 32.5,-62.0451
 L 35.1983,-60.7145 L 38.0471,-59.7474 L 40.9979,-59.1605 L 44,-58.9637 L 96,-58.9637 L 99.0021,-59.1605
 L 101.953,-59.7474 L 104.802,-60.7145 L 107.5,-62.0451 L 110.002,-63.7166 L 112.263,-65.7002 L 114.247,-67.9622
 L 115.919,-70.4637 L 117.249,-73.162 L 118.216,-76.0109 L 118.803,-78.9616 L 119,-81.9637 L 119,-213.867
 L 96.5,-213.867 L 96.5,-214.067 L 119,-214.067 L 119,-217.873 L 96.5,-217.873 L 96.5,-218.073
 L 119,-218.073 L 119,-221.879 L 96.5,-221.879 L 96.5,-222.079 L 119,-222.079 L 119,-225.885
 L 96.5,-225.885 L 96.5,-226.085 L 119,-226.085 L 119,-229.891 L 96.5,-229.891 L 96.5,-230.091
 L 119,-230.091 L 119,-233.897 L 96.5,-233.897 L 96.5,-234.097 L 119,-234.097 L 119,-249.903
 L 96.5,-249.903 L 96.5,-250.103 L 119,-250.103 L 119,-253.909 L 96.5,-253.909 L 96.5,-254.109
 L 119,-254.109 L 119,-257.915 L 96.5,-257.915 L 96.5,-258.115 L 119,-258.115 L 119,-261.921
 L 96.5,-261.921 L 96.5,-262.121 L 119,-262.121 L 119,-265.927 L 96.5,-265.927 L 96.5,-266.127
 L 119,-266.127 L 119,-269.933 L 96.5,-269.933 L 96.5,-270.133 L 119,-270.133 L 119,-402.036
 L 118.803,-405.038 L 118.216,-407.989 L 117.249,-410.838 L 115.919,-413.536 L 114.247,-416.038 L 112.263,-418.3
 L 110.002,-420.283 L 107.5,-421.955 L 104.802,-423.286 L 101.953,-424.253 L 99.0021,-424.84 L 96,-425.036
 L 44,-425.036 L 40.9979,-424.84 L 38.0471,-424.253 L 35.1983,-423.286 L 32.5,-421.955 L 29.9985,-420.283
 L 27.7365,-418.3 L 25.7529,-416.038 L 24.0814,-413.536 L 22.7508,-410.838 L 21.7837,-407.989 L 21.1968,-405.038
 L 21,-402.036 L 21,-270.133 L 43.5,-270.133 L 43.5,-269.933 z
M 92.5,-269.933 L 47.5,-269.933 L 47.5,-270.133 L 92.5,-270.133 z
M 85,-416.986 L 85,-421.086 L 95,-421.086 L 95,-416.986 z
M 45,-416.986 L 45,-421.086 L 55,-421.086 L 55,-416.986 z
M 65,-416.986 L 65,-421.086 L 75,-421.086 L 75,-416.986 z
M 111,-392.036 L 111,-402.036 L 115,-402.036 L 115,-392.036 z
M 25,-392.036 L 25,-402.036 L 29,-402.036 L 29,-392.036 z
M 111,-372.036 L 111,-382.036 L 115,-382.036 L 115,-372.036 z
M 25,-372.036 L 25,-382.036 L 29,-382.036 L 29,-372.036 z
M 111,-352.036 L 111,-362.036 L 115,-362.036 L 115,-352.036 z
M 25,-352.036 L 25,-362.036 L 29,-362.036 L 29,-352.036 z
M 25,-342.036 L 29,-342.036 L 29,-332.036 L 25,-332.036 z
M 111,-312.036 L 111,-322.036 L 115,-322.036 L 115,-312.036 z
M 25,-312.036 L 25,-322.036 L 29,-322.036 L 29,-312.036 z
M 111,-292.036 L 111,-302.036 L 115,-302.036 L 115,-292.036 z
M 25,-292.036 L 25,-302.036 L 29,-302.036 L 29,-292.036 z
M 111,-272.036 L 111,-282.036 L 115,-282.036 L 115,-272.036 z
M 25,-272.036 L 25,-282.036 L 29,-282.036 L 29,-272.036 z
M 23,-267.93 L 23,-268.13 L 68,-268.13 L 68,-267.93 z
M 72,-267.93 L 72,-268.13 L 117,-268.13 L 117,-267.93 z
M 47.5,-265.927 L 47.5,-266.127 L 92.5,-266.127 L 92.5,-265.927 z
M 72,-263.924 L 72,-264.124 L 117,-264.124 L 117,-263.924 z
M 23,-263.924 L 23,-264.124 L 68,-264.124 L 68,-263.924 z
M 47.5,-261.921 L 47.5,-262.121 L 92.5,-262.121 L 92.5,-261.921 z
M 23,-259.918 L 23,-260.118 L 68,-260.118 L 68,-259.918 z
M 72,-259.918 L 72,-260.118 L 117,-260.118 L 117,-259.918 z
M 72,-255.912 L 72,-256.112 L 117,-256.112 L 117,-255.912 z
M 23,-255.912 L 23,-256.112 L 68,-256.112 L 68,-255.912 z
M 47.5,-253.909 L 47.5,-254.109 L 92.5,-254.109 L 92.5,-253.909 z
M 23,-251.906 L 23,-252.106 L 68,-252.106 L 68,-251.906 z
M 72,-251.906 L 72,-252.106 L 117,-252.106 L 117,-251.906 z
M 47.5,-249.903 L 47.5,-250.103 L 92.5,-250.103 L 92.5,-249.903 z
M 25,-237 L 25,-247 L 29,-247 L 29,-237 z
M 111,-237 L 111,-247 L 115,-247 L 115,-237 z
M 47.5,-233.897 L 47.5,-234.097 L 92.5,-234.097 L 92.5,-233.897 z
M 23,-231.894 L 23,-232.094 L 68,-232.094 L 68,-231.894 z
M 72,-231.894 L 72,-232.094 L 117,-232.094 L 117,-231.894 z
M 47.5,-229.891 L 47.5,-230.091 L 92.5,-230.091 L 92.5,-229.891 z
M 23,-227.888 L 23,-228.088 L 68,-228.088 L 68,-227.888 z
M 72,-227.888 L 72,-228.088 L 117,-228.088 L 117,-227.888 z
M 47.5,-225.885 L 47.5,-226.085 L 92.5,-226.085 L 92.5,-225.885 z
M 23,-223.882 L 23,-224.082 L 68,-224.082 L 68,-223.882 z
M 72,-223.882 L 72,-224.082 L 117,-224.082 L 117,-223.882 z
M 47.5,-221.879 L 47.5,-222.079 L 92.5,-222.079 L 92.5,-221.879 z
M 23,-219.876 L 23,-220.076 L 68,-220.076 L 68,-219.876 z
M 117,-219.876 L 72,-219.876 L 72,-220.076 L 117,-220.076 z
M 47.5,-217.873 L 47.5,-218.073 L 92.5,-218.073 L 92.5,-217.873 z
M 23,-215.87 L 23,-216.07 L 68,-216.07 L 68,-215.87 z
M 72,-215.87 L 72,-216.07 L 117,-216.07 L 117,-215.87 z
M 111,-201.964 L 111,-211.964 L 115,-211.964 L 115,-201.964 z
M 25,-201.964 L 25,-211.964 L 29,-211.964 L 29,-201.964 z
M 111,-181.964 L 111,-191.964 L 115,-191.964 L 115,-181.964 z
M 25,-181.964 L 25,-191.964 L 29,-191.964 L 29,-181.964 z
M 111,-161.964 L 111,-171.964 L 115,-171.964 L 115,-161.964 z
M 25,-161.964 L 25,-171.964 L 29,-171.964 L 29,-161.964 z
M 25,-141.964 L 25,-151.964 L 29,-151.964 L 29,-141.964 z
M 111,-141.964 L 111,-151.964 L 115,-151.964 L 115,-141.964 z
M 111,-121.964 L 111,-131.964 L 115,-131.964 L 115,-121.964 z
M 25,-121.964 L 25,-131.964 L 29,-131.964 L 29,-121.964 z
M 111,-101.964 L 111,-111.964 L 115,-111.964 L 115,-101.964 z
M 25,-101.964 L 25,-111.964 L 29,-111.964 L 29,-101.964 z
M 111,-81.9637 L 111,-91.9637 L 115,-91.9637 L 115,-81.9637 z
M 25,-81.9637 L 25,-91.9637 L 29,-91.9637 L 29,-81.9637 z
M 65,-62.9137 L 65,-67.0137 L 75,-67.0137 L 75,-62.9137 z
M 45,-62.9137 L 45,-67.0137 L 55,-67.0137 L 55,-62.9137 z
M 85,-62.9137 L 85,-67.0137 L 95,-67.0137 L 95,-62.9137 z
M 115,-332.036 L 111,-332.036 L 111,-342.036 L 115,-342.036 z
M 92.5,-257.915 L 47.5,-257.915 L 47.5,-258.115 L 92.5,-258.115 z
M 92.5,-213.867 L 47.5,-213.867 L 47.5,-214.067 L 92.5,-214.067 z
" stroke="black" fill="lightgray" stroke-width="0.5"/>
</svg>
